<svg xmlns="http://www.w3.org/2000/svg" style="display: none;">
  
    <symbol id="icon-social-facebook" viewBox="0 0 512 512">
      <path d="m420 72l-328 0c-11 0-20 9-20 20l0 328c0 11 9 20 20 20l177 0l0-142l-48 0l0-56l48 0l0-41c0-48 29-74 71-74c20 0 38 2 43 3l0 49l-29 0c-23 0-28 11-28 27l0 36l55 0l-7 56l-48 0l0 142l94 0c11 0 20-9 20-20l0-328c0-11-9-20-20-20z"/>
    </symbol>
  
    <symbol id="icon-social-twitter" viewBox="0 0 512 512">
      <path d="m453 134c-14 6-30 11-46 12c16-10 29-25 35-44c-15 9-33 16-51 19c-15-15-36-25-59-25c-45 0-81 36-81 81c0 6 1 12 2 18c-67-3-127-35-167-84c-7 12-11 25-11 40c0 28 15 53 36 68c-13-1-25-4-36-11c0 1 0 1 0 2c0 39 28 71 65 79c-7 2-14 3-22 3c-5 0-10-1-15-2c10 32 40 56 76 56c-28 22-63 35-101 35c-6 0-13 0-19-1c36 23 78 36 124 36c149 0 230-123 230-230c0-3 0-7 0-10c16-12 29-26 40-42z"/>
    </symbol>
  
    <symbol id="icon-social-github" viewBox="0 0 512 512">
      <path d="m256 61c-110 0-200 90-200 200c0 88 58 163 137 189c10 2 14-4 14-9c0-5-1-17-1-34c-55 12-67-27-67-27c-9-23-22-29-22-29c-18-13 1-12 1-12c20 1 31 20 31 20c18 31 47 22 58 17c2-13 7-22 13-27c-45-5-91-22-91-99c0-21 7-39 20-53c-2-5-9-25 2-53c0 0 17-5 55 21c16-5 33-7 50-7c17 0 34 2 50 7c38-26 55-21 55-21c11 28 4 48 2 53c13 14 20 32 20 53c0 77-46 94-91 99c7 6 14 18 14 37c0 27 0 48 0 55c0 5 3 11 13 9c80-26 137-101 137-189c0-110-90-200-200-200z"/>
    </symbol>
  
    <symbol id="icon-navicon-round" viewBox="0 0 512 512">
      <path d="m417 224l-322 0c-17 0-31 14-31 32 0 18 14 32 31 32l322 0c17 0 31-14 31-32 0-18-14-32-31-32z m0-128l-322 0c-17 0-31 14-31 32 0 18 14 32 31 32l322 0c17 0 31-14 31-32 0-18-14-32-31-32z m0 256l-322 0c-17 0-31 14-31 32 0 18 14 32 31 32l322 0c17 0 31-14 31-32 0-18-14-32-31-32z"/>
    </symbol>
  
    <symbol id="icon-close-round" viewBox="0 0 512 512">
      <path d="m438 387l-131-131 131-131c14-14 14-36 0-50-15-15-37-15-51 0l-131 130-131-130c-14-15-36-15-50 0-15 14-15 36 0 50l130 131-130 131c-15 14-15 36 0 51 14 14 36 14 50 0l131-131 131 131c14 14 36 14 51 0 14-15 14-37 0-51z"/>
    </symbol>
  
    <symbol id="icon-downloads" viewBox="0 0 512 512">
      <path d="m498 63l-40-49c-6-8-17-14-31-14l-342 0c-14 0-25 6-34 14l-37 49c-8 11-14 22-14 37l0 355c0 31 26 57 57 57l398 0c31 0 57-26 57-57l0-355c0-15-6-26-14-37z m-242 349l-156-156 99 0 0-57 114 0 0 57 99 0z m-196-355l22-29 342 0 25 29z"/>
    </symbol>
  
    <symbol id="icon-info-circled" viewBox="0 0 512 512">
      <path d="m253 20c65 0 120 22 167 67c46 45 70 100 72 165c0 65-22 121-68 167c-45 47-100 71-165 73c-65 0-121-22-167-68c-47-45-71-100-72-165c-1-65 21-121 67-167c46-47 101-71 166-72m27 78c-15 0-26 4-34 13c-8 8-12 16-12 25c0 10 2 17 8 23c6 5 14 8 25 8c13 0 24-4 31-11c8-8 12-17 12-28c0-20-10-30-30-30m-62 304c10 0 25-4 43-13c19-9 37-22 54-40c0 0-9-12-9-12c-16 12-28 18-37 18c-4 0-5-6-2-19c0 0 22-82 22-82c9-33 5-49-11-49c-11 0-26 5-46 15c-20 10-40 22-59 38c0 0 8 13 8 13c18-11 31-17 38-17c4 0 4 6 0 17c0 0-18 78-18 78c-9 36-3 53 17 53"/>
    </symbol>
  
    <symbol id="icon-plus" viewBox="0 0 512 512">
      <path d="m448 224l-160 0 0-160-64 0 0 160-160 0 0 64 160 0 0 160 64 0 0-160 160 0z"/>
    </symbol>
  
    <symbol id="icon-calendar-o" viewBox="0 0 512 512">
      <path d="m55 475l402 0 0-292-402 0z m110-347l0-82c0-3-1-5-3-7-2-2-4-2-7-2l-18 0c-3 0-5 0-6 2-2 2-3 4-3 7l0 82c0 3 1 5 3 7 1 1 3 2 6 2l18 0c3 0 5-1 7-2 2-2 3-4 3-7z m219 0l0-82c0-3-1-5-3-7-1-2-3-2-6-2l-18 0c-3 0-5 0-7 2-2 2-3 4-3 7l0 82c0 3 1 5 3 7 2 1 4 2 7 2l18 0c3 0 5-1 6-2 2-2 3-4 3-7z m110-18l0 365c0 10-4 19-11 26-7 7-16 11-26 11l-402 0c-10 0-19-4-26-11-7-7-11-16-11-26l0-365c0-10 4-19 11-26 7-7 16-11 26-11l36 0 0-27c0-13 5-24 14-33 9-9 20-13 32-13l18 0c13 0 24 4 33 13 9 9 13 20 13 33l0 27 110 0 0-27c0-13 4-24 13-33 9-9 20-13 33-13l18 0c12 0 23 4 32 13 9 9 14 20 14 33l0 27 36 0c10 0 19 4 26 11 7 7 11 16 11 26z"/>
    </symbol>
  
    <symbol id="icon-add" viewBox="0 0 512 512">
      <path d="m177 256c48 0 88-40 88-88 0-49-40-89-88-89-49 0-89 40-89 89 0 48 40 88 89 88z m260-44l0-66-44 0 0 66-66 0 0 44 66 0 0 66 44 0 0-66 66 0 0-44z m-260 88c-60 0-177 29-177 88l0 45 353 0 0-45c0-59-117-88-176-88z"/>
    </symbol>
  
    <symbol id="icon-capacity-icon" viewBox="0 0 512 512">
      <path d="m471 480l-379 0c-10 0-34-3-34-32 0-39 66-119 155-149 1 1 1 1 1 1 20 13 44 20 69 20 25 0 47-7 67-19 0 0 0 0 0 0 84 30 155 105 155 147 0 29-23 32-34 32z m-284-336c0-92 102-109 161-112l0 32c0 9 7 16 16 16l16 0 0 112c0 53-43 96-97 96-53 0-96-43-96-96z m191 134c21-23 34-53 34-86l0-128c0-9-7-16-16-16l-16 0 0-32c0-9-7-16-16-16-131 0-210 54-210 144l0 48c0 32 12 61 32 84-86 35-160 113-160 172 0 38 26 64 66 64l379 0c40 0 67-26 67-64 0-57-74-133-160-170z"/>
    </symbol>
  
    <symbol id="icon-pin" viewBox="0 0 512 512">
      <path d="m256 435c-10 0-19-6-23-15-18-38-104-233-104-292 0-71 57-128 127-128 70 0 127 57 127 128 0 59-86 254-104 292-4 9-13 15-23 15z m0-384c-42 0-76 35-76 77 0 30 40 135 76 218 36-83 76-188 76-218 0-42-34-77-76-77z m191 461l-382 0c-17 0-33-9-42-23-10-14-11-33-5-48l55-128c8-19 26-31 47-31l21 0 0 51-21 0-55 128 382 0-55-128-22 0 0-51 22 0c21 0 39 12 47 31l55 128c6 15 5 34-5 48-9 14-25 23-42 23z m-191-346c21 0 38-17 38-38 0-21-17-38-38-38-21 0-38 17-38 38 0 21 17 38 38 38z"/>
    </symbol>
  
    <symbol id="icon-calendar" viewBox="0 0 512 512">
      <path d="m460 205l-409 0 0-78c0-13 11-25 25-25l26 0 0 52 51 0 0-52 205 0 0 52 51 0 0-52 26 0c14 0 25 12 25 26z m0 230c0 14-11 26-25 26l-358 0c-14 0-26-12-26-26l0-179 409 0z m-458 20c0 28 24 57 52 57l409 0c29 0 49-26 49-57 0-10-1-318-1-334 0-54-7-70-102-70l0-51-51 0 0 51-205 0 0-51-51 0 0 51-51 0c-28 0-51 23-51 51z"/>
    </symbol>
  
    <symbol id="icon-ios-search-strong" viewBox="0 0 512 512">
      <path d="m345 298c15-24 23-52 23-82 0-84-68-152-152-152-84 0-152 68-152 152 0 84 68 153 152 153 31 0 59-9 83-25l7-5 108 109 34-34-108-109z m-44-167c23 23 36 53 36 85 0 32-13 63-36 85-22 23-52 35-85 35-32 0-62-12-85-35-22-22-35-53-35-85 0-32 13-62 35-85 23-22 53-35 85-35 33 0 63 13 85 35z"/>
    </symbol>
  
    <symbol id="icon-adduser" viewBox="0 0 512 512">
      <path d="m288 272c0 9 7 16 16 16l48 0 0 48c0 9 7 16 16 16 9 0 16-7 16-16l0-48 48 0c9 0 16-7 16-16 0-9-7-16-16-16l-48 0 0-48c0-9-7-16-16-16-9 0-16 7-16 16l0 48-48 0c-9 0-16 7-16 16z m192 176c0 29-27 32-37 32l-377 0c-10 0-34-3-34-32 0-39 66-119 155-148 13 8 28 14 44 18 0 0 0 0 1 0 19 57 73 98 136 98 30 0 58-9 82-25 0 0 0-1 0-1 17 22 30 43 30 58z m-320-304c0-92 102-109 160-112l0 32c0 9 7 16 16 16l16 0 0 49c0 0 0 0 0 0-72 8-128 69-128 143 0 3 0 7 0 10 0 0-1 0-2 0-2-1-4-2-6-3-6-3-12-6-17-10 0 0-1 0-1 0-23-18-38-46-38-77z m208 16c62 0 112 50 112 112 0 34-15 65-39 85-1 1-2 2-3 2-19 16-43 25-70 25-49 0-91-32-106-76-1-3-2-6-3-9-1-4-1-9-2-13 0 0 0 0 0 0 0-1 0-1 0-1l0 0c0 0 0 0 0 0-1-4-1-9-1-13 0-54 38-99 88-109 8-2 16-3 24-3z m144 112c0-74-56-135-128-143l0-65c0-9-7-16-16-16l-16 0 0-32c0-9-7-16-16-16-130 0-208 54-208 144l0 48c0 32 12 61 31 84-85 35-159 113-159 172 0 38 26 64 66 64l377 0c39 0 69-26 69-64 0-23-16-51-38-79 23-25 38-59 38-97z"/>
    </symbol>
  
</svg>
